# xmcd
#
# Track frame offsets:
#	182
#	14385
#	25642
#	37892
#	50117
#	64682
#	79217
#	93412
#	108165
#	122270
#	136325
#	150812
#	164625
#	178762
#	192892
#	206555
#	220722
#	235775
#
# Disc length: 3333 seconds
#
# Revision: 0
# Processed by: cddbd v1.4PL0 Copyright (c) Steve Scherf et al.
# Submitted via: EasyCDDAExtractor 4.5.2.1
#
DISCID=e20d0312
DTITLE=Blind Mctell Willie - Jazz and Blues Collection - CD 49 
DYEAR=1900
DGENRE=Blues
TTITLE0=Atlanta Strut
TTITLE1=Statesboro Blues
TTITLE2=Hillbilly Willie's Blues
TTITLE3=Three Women Blues
TTITLE4=Travellin' Blues
TTITLE5=Drive Away Blues
TTITLE6=Love Changin' Blues
TTITLE7=Razor Ball
TTITLE8=Broke Down Engine
TTITLE9=Stomp Down Rider
TTITLE10=Southern Can Is Mine
TTITLE11=Georgia Rag
TTITLE12=Mama Let Me Scoop For You
TTITLE13=Searchin' The Desert For The Blues
TTITLE14=It's Your Time To Worry
TTITLE15=Cold Winter Day
TTITLE16=Ticket Agent Blues
TTITLE17=Writin' Paper Blues
EXTD=
EXTT0=
EXTT1=
EXTT2=
EXTT3=
EXTT4=
EXTT5=
EXTT6=
EXTT7=
EXTT8=
EXTT9=
EXTT10=
EXTT11=
EXTT12=
EXTT13=
EXTT14=
EXTT15=
EXTT16=
EXTT17=
PLAYORDER=
